<?xml version="1.0" encoding="UTF-8"?>
<svg width="512" height="512" viewBox="0 0 512 512" fill="none" xmlns="http://www.w3.org/2000/svg">
  <rect width="512" height="512" rx="128" fill="#3B82F6"/>
  <path d="M384 160H128C119.2 160 112 167.2 112 176V400C112 408.8 119.2 416 128 416H384C392.8 416 400 408.8 400 400V176C400 167.2 392.8 160 384 160Z" fill="white"/>
  <path d="M160 128H128C110.3 128 96 142.3 96 160V176C96 184.8 103.2 192 112 192H400C408.8 192 416 199.2 416 208V224C433.7 224 448 209.7 448 192V160C448 142.3 433.7 128 416 128H160Z" fill="#93C5FD"/>
  <path d="M208 240H176C167.2 240 160 247.2 160 256C160 264.8 167.2 272 176 272H208C216.8 272 224 264.8 224 256C224 247.2 216.8 240 208 240Z" fill="#3B82F6"/>
  <path d="M304 240H272C263.2 240 256 247.2 256 256C256 264.8 263.2 272 272 272H304C312.8 272 320 264.8 320 256C320 247.2 312.8 240 304 240Z" fill="#3B82F6"/>
  <path d="M208 304H176C167.2 304 160 311.2 160 320C160 328.8 167.2 336 176 336H208C216.8 336 224 328.8 224 320C224 311.2 216.8 304 208 304Z" fill="#3B82F6"/>
  <path d="M304 304H272C263.2 304 256 311.2 256 320C256 328.8 263.2 336 272 336H304C312.8 336 320 328.8 320 320C320 311.2 312.8 304 304 304Z" fill="#3B82F6"/>
  <path d="M208 368H176C167.2 368 160 375.2 160 384C160 392.8 167.2 400 176 400H208C216.8 400 224 392.8 224 384C224 375.2 216.8 368 208 368Z" fill="#93C5FD"/>
  <path d="M304 368H272C263.2 368 256 375.2 256 384C256 392.8 263.2 400 272 400H304C312.8 400 320 392.8 320 384C320 375.2 312.8 368 304 368Z" fill="#93C5FD"/>
</svg>
